<?xml version="1.0" encoding="utf-8"?>
<!-- Generator: Adobe Illustrator 26.3.1, SVG Export Plug-In . SVG Version: 6.00 Build 0)  -->
<svg version="1.2" baseProfile="tiny" id="g-3Js8o-a-culturally-rich-neighborhood-rgb-Artboard_1-interactions-img" xmlns="http://www.w3.org/2000/svg" xmlns:xlink="http://www.w3.org/1999/xlink"
	 x="0px" y="0px" viewBox="0 0 700 500" overflow="visible" xml:space="preserve">
<g>
	<g id="buildingMarkers_00000119109392341163041330000003975943921846975386_">
		<path fill="#FA8C00" d="M572.5,214c-0.5,0-1,0.5-1,1v5c0,1,1,1,1,2v9c0,0.5,0.5,1,1,1h1c0.5,0,1-0.5,1-1v-9c0-1,1-1,1-2v-5
			c0-0.5-0.5-1-1-1c-0.24,0-0.24,0.3-0.24,0.5v4c0,0.2,0,0.5-0.26,0.5s-0.24-0.3-0.24-0.5v-4c0-0.2,0-0.5-0.26-0.5h-1
			c-0.24,0-0.24,0.3-0.24,0.5v4c0,0.2,0,0.5-0.26,0.5s-0.24-0.3-0.24-0.5v-4C572.76,214.3,572.76,214,572.5,214z M582.5,214
			c-1,0-2.86,0.24-3.5,1.5c-0.5,1-0.5,3.5-0.5,4.5v4c0,0.5,0.5,1,1,1v6c0,0.5,0.5,1,1,1h1c0.5,0,1-0.5,1-1V214z"/>
		<path fill="#FA8C00" d="M455.5,206c-0.5,0-1,0.5-1,1v5c0,1,1,1,1,2v9c0,0.5,0.5,1,1,1h1c0.5,0,1-0.5,1-1v-9c0-1,1-1,1-2v-5
			c0-0.5-0.5-1-1-1c-0.24,0-0.24,0.3-0.24,0.5v4c0,0.2,0,0.5-0.26,0.5s-0.24-0.3-0.24-0.5v-4c0-0.2,0-0.5-0.26-0.5h-1
			c-0.24,0-0.24,0.3-0.24,0.5v4c0,0.2,0,0.5-0.26,0.5s-0.24-0.3-0.24-0.5v-4C455.76,206.3,455.76,206,455.5,206z M465.5,206
			c-1,0-2.86,0.24-3.5,1.5c-0.5,1-0.5,3.5-0.5,4.5v4c0,0.5,0.5,1,1,1v6c0,0.5,0.5,1,1,1h1c0.5,0,1-0.5,1-1V206z"/>
		<path id="johnny_00000056420980285199212050000017469367955929260955_" fill="#FA8C00" d="M414.5,45c-0.5,0-1,0.5-1,1v5
			c0,1,1,1,1,2v9c0,0.5,0.5,1,1,1h1c0.5,0,1-0.5,1-1v-9c0-1,1-1,1-2v-5c0-0.5-0.5-1-1-1c-0.24,0-0.24,0.3-0.24,0.5v4
			c0,0.2,0,0.5-0.26,0.5s-0.24-0.3-0.24-0.5v-4c0-0.2,0-0.5-0.26-0.5h-1c-0.24,0-0.24,0.3-0.24,0.5v4c0,0.2,0,0.5-0.26,0.5
			s-0.24-0.3-0.24-0.5v-4C414.76,45.3,414.76,45,414.5,45z M424.5,45c-1,0-2.86,0.24-3.5,1.5c-0.5,1-0.5,3.5-0.5,4.5v4
			c0,0.5,0.5,1,1,1v6c0,0.5,0.5,1,1,1h1c0.5,0,1-0.5,1-1V45z"/>
		<path id="kalesa_00000025435766957709911920000005089565830363446207_" fill="#FA8C00" d="M334.5,137c-0.5,0-1,0.5-1,1v5
			c0,1,1,1,1,2v9c0,0.5,0.5,1,1,1h1c0.5,0,1-0.5,1-1v-9c0-1,1-1,1-2v-5c0-0.5-0.5-1-1-1c-0.24,0-0.24,0.3-0.24,0.5v4
			c0,0.2,0,0.5-0.26,0.5s-0.24-0.3-0.24-0.5v-4c0-0.2,0-0.5-0.26-0.5h-1c-0.24,0-0.24,0.3-0.24,0.5v4c0,0.2,0,0.5-0.26,0.5
			s-0.24-0.3-0.24-0.5v-4C334.76,137.3,334.76,137,334.5,137z M344.5,137c-1,0-2.86,0.24-3.5,1.5c-0.5,1-0.5,3.5-0.5,4.5v4
			c0,0.5,0.5,1,1,1v6c0,0.5,0.5,1,1,1h1c0.5,0,1-0.5,1-1V137z"/>
		<path id="rocio_00000028315943278006665460000013123270054589129396_" fill="#FA8C00" d="M145.5,171c-0.5,0-1,0.5-1,1v5
			c0,1,1,1,1,2v9c0,0.5,0.5,1,1,1h1c0.5,0,1-0.5,1-1v-9c0-1,1-1,1-2v-5c0-0.5-0.5-1-1-1c-0.24,0-0.24,0.3-0.24,0.5v4
			c0,0.2,0,0.5-0.26,0.5s-0.24-0.3-0.24-0.5v-4c0-0.2,0-0.5-0.26-0.5h-1c-0.24,0-0.24,0.3-0.24,0.5v4c0,0.2,0,0.5-0.26,0.5
			s-0.24-0.3-0.24-0.5v-4C145.76,171.3,145.76,171,145.5,171z M155.5,171c-1,0-2.86,0.24-3.5,1.5c-0.5,1-0.5,3.5-0.5,4.5v4
			c0,0.5,0.5,1,1,1v6c0,0.5,0.5,1,1,1h1c0.5,0,1-0.5,1-1V171z"/>
		<path fill="#1D81A2" d="M108,132c0-0.533,0.2-1,0.6-1.4c0.4-0.4,0.867-0.6,1.4-0.6c0.56,0,1.033,0.2,1.42,0.6
			c0.387,0.4,0.58,0.867,0.58,1.4c0,0.56-0.193,1.033-0.58,1.42c-0.387,0.387-0.86,0.58-1.42,0.58c-0.533,0-1-0.193-1.4-0.58
			C108.2,133.033,108,132.56,108,132z M118,132c0-0.533,0.2-1,0.6-1.4c0.4-0.4,0.867-0.6,1.4-0.6c0.56,0,1.033,0.2,1.42,0.6
			c0.387,0.4,0.58,0.867,0.58,1.4c0,0.56-0.193,1.033-0.58,1.42c-0.387,0.387-0.86,0.58-1.42,0.58c-0.533,0-1-0.193-1.4-0.58
			C118.2,133.033,118,132.56,118,132z M111.56,127.28c-0.48,0.133-0.707,0.287-0.68,0.46c0.027,0.173,0.32,0.26,0.88,0.26H123v1.52
			c0,0.267-0.133,0.4-0.4,0.4h-13.08c-0.267,0-0.4-0.133-0.4-0.4V128l-0.2-0.92l-1.96-9.08H105v-1.6c0-0.267,0.133-0.4,0.4-0.4h3.12
			c0.267,0,0.4,0.133,0.4,0.4v1.72H123v5.48c0,0.293-0.12,0.467-0.36,0.52L111.56,127.28z"/>
		<path id="koreanCatholic_00000111909782430848828160000014267588267371780004_" fill="#00DCA6" d="M496,192
			c-0.84,0-1.5,0.66-1.5,1.5v3.5H491c-0.84,0-1.5,0.66-1.5,1.5c0,0.82,0.66,1.5,1.5,1.5h3.5v8.5c0,0.84,0.66,1.5,1.5,1.5
			s1.5-0.66,1.5-1.5V200h3.5c0.84,0,1.5-0.68,1.5-1.5c0-0.84-0.66-1.5-1.5-1.5h-3.5v-3.5C497.5,192.66,496.84,192,496,192z"/>
		<path id="lovely_00000148633975657130354790000009124711897565421973_" fill="#1D81A2" d="M533,301c0-0.533,0.2-1,0.6-1.4
			c0.4-0.4,0.867-0.6,1.4-0.6c0.56,0,1.033,0.2,1.42,0.6s0.58,0.867,0.58,1.4c0,0.56-0.193,1.033-0.58,1.42
			c-0.387,0.387-0.86,0.58-1.42,0.58c-0.533,0-1-0.193-1.4-0.58C533.2,302.033,533,301.56,533,301z M543,301c0-0.533,0.2-1,0.6-1.4
			c0.4-0.4,0.867-0.6,1.4-0.6c0.56,0,1.033,0.2,1.42,0.6s0.58,0.867,0.58,1.4c0,0.56-0.193,1.033-0.58,1.42
			c-0.387,0.387-0.86,0.58-1.42,0.58c-0.533,0-1-0.193-1.4-0.58C543.2,302.033,543,301.56,543,301z M536.56,296.28
			c-0.48,0.133-0.707,0.287-0.68,0.46c0.027,0.173,0.32,0.26,0.88,0.26H548v1.52c0,0.267-0.133,0.4-0.4,0.4h-13.08
			c-0.267,0-0.4-0.133-0.4-0.4V297l-0.2-0.92l-1.96-9.08H530v-1.6c0-0.267,0.133-0.4,0.4-0.4h3.12c0.267,0,0.4,0.133,0.4,0.4v1.72
			H548v5.48c0,0.293-0.12,0.467-0.36,0.52L536.56,296.28z"/>
	</g>
</g>
<style>
#g-3Js8o-a-culturally-rich-neighborhood-rgb-Artboard_1-interactions-img rect, #g-3Js8o-a-culturally-rich-neighborhood-rgb-Artboard_1-interactions-img circle, #g-3Js8o-a-culturally-rich-neighborhood-rgb-Artboard_1-interactions-img path, #g-3Js8o-a-culturally-rich-neighborhood-rgb-Artboard_1-interactions-img line, #g-3Js8o-a-culturally-rich-neighborhood-rgb-Artboard_1-interactions-img polyline, #g-3Js8o-a-culturally-rich-neighborhood-rgb-Artboard_1-interactions-img polygon { vector-effect: non-scaling-stroke; }
</style>
</svg>

